<svg xmlns="http://www.w3.org/2000/svg" xmlns:xlink="http://www.w3.org/1999/xlink" viewBox="1685 2665 446 125">
  <defs>
    <style>
      .cls-1 {
        clip-path: url(#clip-アートボード_1);
      }

      .cls-2 {
        fill: none;
        stroke: #f1f1f1;
        stroke-width: 10px;
      }

      .cls-3, .cls-5, .cls-6 {
        fill: #575a61;
      }

      .cls-3 {
        font-size: 13px;
      }

      .cls-3, .cls-6 {
        font-family: HiraginoSans-W5, Hiragino Sans;
        letter-spacing: 0.05em;
      }

      .cls-4 {
        fill: #f1f1f1;
      }

      .cls-6 {
        font-size: 16px;
      }
    </style>
    <clipPath id="clip-アートボード_1">
      <rect x="1685" y="2665" width="446" height="125"/>
    </clipPath>
  </defs>
  <g id="アートボード_1" data-name="アートボード – 1" class="cls-1">
    <g id="グループ化_566" data-name="グループ化 566" transform="translate(1222 2279)">
      <line id="線_1" data-name="線 1" class="cls-2" x2="360" transform="translate(505.5 427.5)"/>
      <g id="グループ化_466" data-name="グループ化 466">
        <text id="開講者とMessage_日程や時間を調整" data-name="開講者とMessage
日程や時間を調整" class="cls-3" transform="translate(686 487)"><tspan x="-59.319" y="0">開講者とMessage</tspan><tspan x="-54.275" y="20">日程や時間を調整</tspan></text>
        <g id="グループ化_464" data-name="グループ化 464" transform="translate(17 2)">
          <circle id="楕円形_10" data-name="楕円形 10" class="cls-4" cx="39" cy="39" r="39" transform="translate(630 386)"/>
          <path id="パス_101" data-name="パス 101" class="cls-5" d="M33.579,8.648H30.255V23.607H8.648v3.324a1.667,1.667,0,0,0,1.662,1.662H28.593l6.648,6.648V10.31A1.667,1.667,0,0,0,33.579,8.648ZM26.931,18.62V3.662A1.667,1.667,0,0,0,25.269,2H3.662A1.667,1.667,0,0,0,2,3.662V26.931l6.648-6.648h16.62A1.667,1.667,0,0,0,26.931,18.62Z" transform="translate(650.962 407.797)"/>
        </g>
      </g>
      <g id="グループ化_467" data-name="グループ化 467">
        <text id="画面共有で_授業開始" data-name="画面共有で
授業開始" class="cls-3" transform="translate(867 487)"><tspan x="-33.8" y="0">画面共有で</tspan><tspan x="-26.975" y="20">授業開始</tspan></text>
        <g id="グループ化_463" data-name="グループ化 463" transform="translate(18 2)">
          <circle id="楕円形_11" data-name="楕円形 11" class="cls-4" cx="39" cy="39" r="39" transform="translate(810 386)"/>
          <path id="パス_103" data-name="パス 103" class="cls-5" d="M9.517,17.024A27.272,27.272,0,0,0,21.381,28.888l3.961-3.961a1.79,1.79,0,0,1,1.836-.432A20.536,20.536,0,0,0,33.6,25.522a1.806,1.806,0,0,1,1.8,1.8V33.6a1.806,1.806,0,0,1-1.8,1.8A30.6,30.6,0,0,1,3,4.8,1.806,1.806,0,0,1,4.8,3h6.3a1.806,1.806,0,0,1,1.8,1.8,20.452,20.452,0,0,0,1.026,6.427,1.807,1.807,0,0,1-.45,1.836Z" transform="translate(830.797 406.797)"/>
        </g>
      </g>
      <g id="グループ化_468" data-name="グループ化 468">
        <text id="受講する" class="cls-6" transform="translate(505 496)"><tspan x="-33.2" y="0">受講する</tspan></text>
        <g id="グループ化_465" data-name="グループ化 465" transform="translate(16 2)">
          <circle id="楕円形_9" data-name="楕円形 9" class="cls-4" cx="39" cy="39" r="39" transform="translate(450 386)"/>
          <path id="パス_105" data-name="パス 105" class="cls-5" d="M10.265,26.708A3.088,3.088,0,1,0,13.354,29.8,3.084,3.084,0,0,0,10.265,26.708ZM1,2V5.088H4.088L9.648,16.809,7.563,20.593a2.986,2.986,0,0,0-.386,1.482,3.1,3.1,0,0,0,3.088,3.088H28.8V22.075H10.914a.382.382,0,0,1-.386-.386l.046-.185,1.39-2.517h11.5a3.074,3.074,0,0,0,2.7-1.591L31.7,7.374a1.509,1.509,0,0,0,.185-.741A1.549,1.549,0,0,0,30.34,5.088H7.5L6.05,2H1ZM25.708,26.708A3.088,3.088,0,1,0,28.8,29.8,3.084,3.084,0,0,0,25.708,26.708Z" transform="translate(472.342 407.702)"/>
        </g>
      </g>
    </g>
  </g>
</svg>
